<?xml version="1.0" encoding="UTF-8" standalone="no"?>
<!DOCTYPE svg PUBLIC "-//W3C//DTD SVG 1.1//EN" "http://www.w3.org/Graphics/SVG/1.1/DTD/svg11.dtd">
<svg width="100%" height="100%" viewBox="0 0 1920 500" version="1.1" xmlns="http://www.w3.org/2000/svg" xmlns:xlink="http://www.w3.org/1999/xlink" xml:space="preserve" xmlns:serif="http://www.serif.com/" style="fill-rule:evenodd;clip-rule:evenodd;stroke-miterlimit:10;">
    <g transform="matrix(0.947544,0,0,0.947544,39.5577,7.42874)">
        <g id="logo.svg">
            <g>
                <g>
                    <clipPath id="_clip1">
                        <rect x="0" y="0" width="512" height="512"/>
                    </clipPath>
                    <g clip-path="url(#_clip1)">
                        <g>
                            <path d="M489.2,368.2C489.2,368.2 422.7,454.4 309.2,474.6C309.2,474.6 249.2,505.5 205.9,491.4L188.9,487C173.6,486 164.3,474.8 164.3,474.8C74.3,450.9 11.6,329.3 11.6,329.3C38.9,321.9 64.7,300 64.7,300C48.5,302.4 35.8,298.9 35.8,298.9C76,276.3 103,217.7 103,217.7C102.5,216.2 102.1,214.7 101.6,213.2C62.5,82.9 128.1,16.9 128.1,16.9C145.3,56.5 211.2,102.4 213.2,103.8L213.3,103.8C200,73.8 207.8,52.6 207.8,52.6C227.9,86 308.5,118.4 308.5,118.4L443,35.5L443.1,35.4C443.1,35.5 443.2,35.5 443.2,35.5C501.5,137.8 463.5,222.2 440,259C431.8,271.8 425.4,278.9 425.4,278.9C425.4,278.9 453,321.8 486,340C486,340 476.6,348.4 462.9,350L489.2,368.2Z" style="fill:url(#_Radial2);fill-rule:nonzero;"/>
                            <path d="M213.2,103.8L196.2,99.8C146.6,76.9 127.2,33.9 127.2,33.9C79.1,111.4 110.7,212 110.7,212L101.6,213.2C62.5,82.9 128.1,16.9 128.1,16.9C145.3,56.5 211.1,102.4 213.2,103.8Z" style="fill:url(#_Radial3);fill-rule:nonzero;"/>
                            <path d="M443.2,35.6L434.5,48.6L426,61.3C382.2,96 295,130.9 295,130.9L298.9,125.2C253.6,117.1 206.2,70.6 206.2,70.6L213.3,103.9C200,73.9 207.8,52.7 207.8,52.7C227.9,86.1 308.5,118.5 308.5,118.5L443,35.5L443.1,35.4C443.1,35.5 443.1,35.5 443.2,35.6Z" style="fill:url(#_Radial4);fill-rule:nonzero;"/>
                            <path d="M393.6,375.7L377.1,359.8C377.1,359.8 384.1,382.4 372.5,397.7L369.2,383.6C369.2,383.6 361.9,435.9 302.3,474.1C302.3,474.1 274.8,489.3 241.4,493.5C234.8,494.4 228,494.8 221.1,494.5C179.4,493.2 164.2,474.8 164.2,474.8L164.1,474.8C161.7,474.1 83.3,449.3 71.5,369.5L65.4,385.2C65.4,385.2 55.9,360 71.4,343.1L54.7,351.4C54.7,351.4 61.8,325.5 86.1,318.1C86.1,318.1 103.9,199.4 150.8,198.2C185.8,197.3 206.6,243.5 206.6,243.5C206.6,243.5 235.3,182.5 294,196.7C352.6,210.9 372.7,333 372.7,333C372.7,333 397.3,351.9 393.6,375.7Z" style="fill:url(#_Radial5);fill-rule:nonzero;"/>
                            <path d="M167.5,318.4C167.5,318.4 175.3,296.2 199.6,291.4C223.9,286.5 237.4,314 238.3,320.8C239.2,327.5 202.1,346 190.6,342.7C179.1,339.3 167.5,318.4 167.5,318.4Z" style="fill:url(#_Radial6);fill-rule:nonzero;"/>
                            <path d="M393.6,375.7L377.1,359.8C377.1,359.8 384.1,382.4 372.5,397.7L369.2,383.6C369.2,383.6 361.9,435.9 302.3,474.1C302.3,474.1 274.8,489.3 241.4,493.5C367,450.6 348,329.3 348,329.3C348,329.3 337.2,223.5 285.3,211.1C233.5,198.6 204.7,263.1 204.7,263.1C204.7,263.1 188.2,210.1 142.1,221.6C96.1,233 98.5,328.4 98.5,328.4C65.6,425.6 161.7,473.4 164.3,474.7C161.9,474 83.5,449.2 71.7,369.4L65.6,385.1C65.6,385.1 56.1,359.9 71.6,343L54.9,351.3C54.9,351.3 62,325.4 86.3,318C86.3,318 104.1,199.3 151,198.1C186,197.2 206.8,243.4 206.8,243.4C206.8,243.4 235.5,182.4 294.2,196.6C352.8,210.8 372.9,332.9 372.9,332.9C372.9,332.9 397.3,351.9 393.6,375.7Z" style="fill:url(#_Radial7);fill-rule:nonzero;"/>
                            <g>
                                <path d="M188.9,487C178.9,487.7 168.8,483.9 161.3,477.3L163.3,478.6C96.2,461.5 42.3,396.2 8.2,339C5.9,335.2 2.7,328.4 0.5,324.4C7.9,322.4 16,320.4 23,317.2C31.9,313.4 40.3,308.4 48.3,302.9C52.2,300.2 56.3,297.3 59.9,294.2L65.9,307.5C63.3,307.9 60.6,308.2 57.9,308.3C50.2,308.7 42.5,308.2 35,306.5L34.5,306.4L33.9,306.2L16,301.6C23.4,297.2 35.9,290.7 42.5,285.5C49.2,280.4 55.3,274.5 60.9,268.3C75.1,252.2 86.9,233.9 96.3,214.6L96,220C90.6,202.9 86.5,185.2 84.1,167.3C77.1,115.7 85.7,59.4 118,17.2C121.1,13.1 127.1,7.2 130.6,3.4L135.2,13.8C138.9,22.1 144.5,30.2 150.7,37.7C166.6,56.8 185.9,73.4 205.6,88.6C209.6,91.6 213.7,94.7 217.7,97.5L206.5,106.8C202.7,98.1 199.9,88.9 198.7,79.5C197.6,70.4 197.8,61 200.1,52.1C201.4,47.6 204.7,38.6 206,34.7L214.4,48.6C219.1,56.2 226.3,62.7 233.5,68.4C257,86.3 284.3,99.7 311.4,111.2L304.6,111.8L439.1,28.9L437.8,29.9L437.9,29.8L444.9,22.9L449.8,31.4C497.2,112.6 491.5,208.3 432.5,282C432,282.6 431.6,283.1 431,283.8L431.8,274.6C435.6,280.3 439.9,286.1 444.2,291.5C452.9,302.4 462.5,312.7 473.2,321.6C480.9,328.3 490.4,333.6 499.3,338.5C498.9,338.8 490.5,346.1 490.3,346.2C484.7,350.6 478.2,353.9 471.3,355.8C468.9,356.5 466.4,356.9 463.9,357.3L467.4,343.6C470.1,345.5 497.5,364.4 500.2,366.3L495.3,372.6C489.5,379.8 483.2,386.5 476.7,393C457.3,412.1 435.8,429.2 412.2,443C380.9,461.5 346.3,474.7 310.4,480.6L312.2,480C303.9,484.1 295.3,487.3 286.5,490C260.8,497.5 231.3,501.9 206,491.2C214.8,493 223.6,493.2 232.3,492.4C257.3,489.9 281,480.7 303.5,470C304.7,469.4 305.9,468.8 307.1,468.2C324.5,464.9 341.6,460 358,453.5C390.3,440.8 420.1,422 446.7,399.8C459.1,389.3 470.8,378 481.3,365.7C482,364.9 482.7,364 483.2,363.3L484.9,374.1C474.7,367 452.7,351.9 442.8,345L462.1,342.2C469,341.4 475.6,338.4 481,334.1L482.4,346.4C479,344.5 475.7,342.4 472.5,340.2C449.5,323.6 431.2,301.5 415.8,277.9C444.5,246.3 462.8,201.7 465.9,159.2C469.2,117.2 457.5,75.2 436.5,38.8C436.5,38.8 448.6,40.4 448.3,40.5L447.7,41.1L447,41.5L312.5,124.4L309.2,126.4C276.5,112.9 220,86.2 201.3,56.1L214.9,54.8C214.4,56.5 214,58 213.8,59.8C211.6,73.5 214.6,87.7 220.2,100.3L231.3,125.2C198.2,102.6 164.7,78 138.9,47C132.2,38.7 125.8,29.9 121.2,19.5L133.5,21.8C133.1,22.3 132.1,23.3 131.7,23.8C88.5,78 90.3,154.6 111.2,217.8C97.5,246.7 77,277.3 51.5,297C47.7,299.9 43.7,302.5 39.5,304.9L37.8,291C44.1,292.5 50.6,292.9 57.1,292.6C61,292.5 85.1,289.1 89.5,288.5C85.6,291.9 67.3,307.2 63.2,310.2C48.1,321.3 31.8,330.9 13.6,336.1L18.4,325.2C20.1,328.3 22.9,333.4 24.8,336.6C49.1,379 79.2,419 118.6,447.5C132.9,457.7 148.5,466.1 165.3,470.9L167.3,472.2C167.3,472.3 167.5,472.6 167.6,472.8L168,473.4C173.2,480.2 180.6,485.2 188.9,487Z" style="fill-rule:nonzero;"/>
                            </g>
                            <g>
                                <path d="M213.6,112.6C190.2,104.3 163.9,104.4 140.5,112.3L141.8,103.5C151,110.6 159.8,117.9 168.3,125.8C176.9,134 185.7,142.4 191.7,153L191.1,159.6C188.5,163.1 186.7,167.1 185.5,171.3C181.5,185.2 186.5,199.9 194.9,211.3L188.2,211.2C196.1,201.9 206.8,194.7 218.7,191.8C222.7,190.9 226.8,190.6 230.7,191.2C227.9,192.1 225.2,193.1 222.6,194.4C213.4,198.8 205.6,205.5 198.5,212.8C197.6,213.7 195.7,215.7 194.8,216.7L191.6,221C186.9,215.3 182.2,209.4 179,202.6C171.1,187.1 171.3,167.1 181.2,152.4L181.5,152L180.9,158.6C175.8,149.3 168.1,141.4 160.6,133.8C152.7,126 144.2,118.5 135.6,111.5L128.8,106L136.9,102.7C162.2,92.5 191,91 217.3,98.4C217.8,98.5 218.1,98.7 218.8,98.9C218.7,99 213.6,112.6 213.6,112.6Z" style="fill-rule:nonzero;"/>
                            </g>
                            <g>
                                <path d="M444.5,243.8C444.4,232.1 442.4,223.2 442.3,222.8L439.3,210L435,222.4C432.1,230.7 424.6,238.1 419,242.6C419.6,225.7 414.4,209 414.2,208.1L411.1,198.2L407.1,207.8C401.3,221.6 387.6,229.1 380.5,232.1C378.3,198.1 383.1,163.8 394.8,129.8C410.3,84.5 433.7,52.8 442.4,41.9C465.5,84.3 474.2,127.7 468.4,171.1C464.5,201 454.4,225.7 444.5,243.8Z" style="fill:url(#_Radial8);fill-rule:nonzero;"/>
                                <path d="M441.8,49C462.4,89 470.1,130 464.7,170.8C461.6,193.7 454.8,213.7 447.3,229.8C446.7,225.1 446,222.2 446,221.9L440,196.4L431.5,221.2C429.9,225.8 426.5,230.4 422.7,234.2C421.8,219.9 418.1,207.8 417.9,207.1L411.7,187.2L403.7,206.4C399.6,216.2 390.8,222.6 384,226.3C382.7,194.7 387.5,162.7 398.4,131.2C411.9,91.6 431.6,62.6 441.8,49M443.1,35.4C443.1,35.4 443.1,35.5 443.1,35.4C441.7,37 410.5,72.5 391.2,128.7C380.6,159.5 373.7,196.5 377.1,237.5C377.1,237.5 401.9,230.1 410.6,209.3C410.6,209.3 417.6,231.9 414.5,250.7C414.5,250.7 433.4,239 438.6,223.7C438.6,223.7 441.3,235.3 440.6,249.5C440.4,252.7 440.1,256.1 439.5,259.5L439.9,259.1C463.4,222.3 501.5,137.8 443.1,35.4Z" style="fill-rule:nonzero;"/>
                            </g>
                            <g>
                                <path d="M313.8,123.8C299.8,133.7 285.4,143.5 269.2,149.2C276,144.3 281.9,138.4 287.5,132.2C293,126.1 298.3,119.6 303.2,113.1L313.8,123.8Z" style="fill-rule:nonzero;"/>
                            </g>
                            <g>
                                <path d="M98.2,217.1C107.5,207.7 117.8,199.1 129.6,192.9C133.6,190.9 137.8,189.2 142.3,188.3L142.2,193.1C140.2,192.4 132.6,189.6 130.8,188.9C137.8,179.7 149.8,176.2 160.9,176.2C155.9,176.8 151,178.1 146.5,180.3C142.3,182.5 138.2,185.3 135.4,189.2L134.4,186.3C138.7,187.3 147.4,189.3 151.7,190.3L143.3,193.2C139.6,194.5 136.1,196.5 132.7,198.7C124.3,204.5 117,212 110.4,219.8C109.1,221.4 107.8,223 106.6,224.5L98.2,217.1Z" style="fill-rule:nonzero;"/>
                            </g>
                            <g>
                                <path d="M314.3,177.7C320.6,173.4 328.8,172.2 336.2,173.8L341.5,174.8C336.2,180.1 330.5,185.4 324.8,190.3L325.6,185.5C327,187.7 328.6,190.2 330.2,192.4C337.3,202.2 344.7,212 355.3,218.4C338.8,216.6 325.3,200.2 317.5,186.6C322.6,182.3 327.9,178.2 333.3,174.4L334.4,179.6C328.1,177.1 321.1,176.6 314.3,177.7Z" style="fill-rule:nonzero;"/>
                            </g>
                            <g>
                                <path d="M419.1,242.7C419.7,225.8 414.5,209.1 414.3,208.3L411.2,198.4L407.2,208C401.4,221.7 387.7,229.2 380.6,232.3C378.5,198.6 383.2,164.5 394.6,130.8C402.6,122.4 415.9,111.6 436.1,103.9C429.9,116.9 418.9,142 418.8,158.4L418.7,166.1L424.8,161.5C424.8,161.5 431.2,157 444.2,157C445.7,157 447.3,157.1 448.9,157.2C441.2,166.2 426.7,184.5 423.6,199.3L421.9,207.3L447.2,193.6C447.7,201.4 447.8,216.3 443.9,231.3C443.3,226.4 442.6,223.2 442.5,223L439.5,210.2L435.2,222.6C432.2,230.8 424.7,238.1 419.1,242.7Z" style="fill:url(#_Radial9);fill-rule:nonzero;"/>
                                <path d="M428.5,111.1C422.3,125.1 415,144.5 414.9,158.3L414.5,174.6L426.9,164.5C427.5,164.1 432,161.4 440.7,160.8C439.5,162.2 438.4,163.8 437.1,165.4C427.4,178.3 421.5,189.4 419.6,198.4L417.7,207.2L417.7,207.1L411.5,187.2L403.5,206.4C399.4,216.2 390.6,222.6 383.8,226.3C382.5,195.2 387.2,163.8 397.6,132.7C404.3,126.1 414.3,117.9 428.5,111.1M443.5,199.7C443.5,202.8 443.5,206.3 443.2,210.2L441.1,201.1L443.5,199.7M437.8,202.7L431.4,221.2C429.8,225.8 426.4,230.4 422.6,234.2C422.1,225.6 420.5,217.7 419.3,212.7L430.7,206.5L437.8,202.7M443.5,97.2C417.8,105.1 401.2,118 391.2,128.7C380.6,159.5 373.7,196.5 377.1,237.5C377.1,237.5 401.9,230.1 410.6,209.3C410.6,209.3 417.6,231.9 414.5,250.7C414.5,250.7 433.4,239 438.6,223.7C438.6,223.7 441.3,235.3 440.6,249.5C455.2,222.4 450.2,187.4 450.2,187.4L427.1,199.9C431.1,180.8 456.3,154.2 456.3,154.2C451.7,153.4 447.6,153.1 444,153.1C429.4,153.1 422.4,158.4 422.4,158.4C422.7,136.6 443.5,97.2 443.5,97.2Z" style="fill-rule:nonzero;"/>
                            </g>
                            <g>
                                <g>
                                    <path d="M197.5,359.9C197.2,359.9 196.9,359.8 196.7,359.7C195.9,359.3 177.1,350.3 168.6,329.2C167.2,325.9 166.3,322.3 165.7,318.6C165.6,318.1 165.8,317.5 166.1,317.1C166.3,316.9 168.1,314.8 173.3,312.7C180,310.1 189.2,308.8 200.5,308.7L200.6,308.7C222.1,308.7 232.7,314.9 236.2,317.5C237.3,318.3 237.8,318.8 237.9,318.9C238.4,319.4 238.5,320.2 238.3,320.8C237.9,321.8 229.2,345.6 198.3,359.5C198,359.8 197.7,359.9 197.5,359.9Z" style="fill:url(#_Radial10);fill-rule:nonzero;"/>
                                    <path d="M200.6,310.7C221.5,310.7 231.7,316.6 235.1,319.1C236.1,319.8 236.5,320.3 236.5,320.3C236.5,320.3 228,344.2 197.5,357.9C197.5,357.9 178.7,349 170.3,328.4C169,325.3 168.1,321.9 167.5,318.3C167.5,318.4 173.7,310.8 200.6,310.7C200.5,310.7 200.6,310.7 200.6,310.7M200.6,307L200.5,307C188.9,307 179.5,308.4 172.6,311.1C167.1,313.3 165,315.6 164.6,316.1C163.9,316.9 163.6,318 163.8,319C164.4,322.8 165.4,326.5 166.8,330C175.6,351.7 195,361.1 195.9,361.5C196.4,361.7 197,361.9 197.5,361.9C198,361.9 198.6,361.8 199.1,361.6C230.7,347.4 239.8,322.8 240.1,321.8C240.6,320.5 240.3,319 239.3,318C239.1,317.8 238.5,317.2 237.3,316.3C226.3,307.8 208,307 200.6,307Z" style="fill-rule:nonzero;"/>
                                </g>
                                <g>
                                    <path d="M236.5,320.3C236.5,320.3 229.6,345.3 197.5,357.9C197.5,357.9 178.7,349 170.3,328.4C176.6,330.3 185.9,331.8 199.3,331.7C222.2,331.5 231.5,323.9 235.1,319.1C236.1,319.9 236.5,320.3 236.5,320.3Z" style="fill:url(#_Radial11);fill-rule:nonzero;"/>
                                </g>
                                <g>
                                    <path d="M201.1,316.4C201.5,318.9 196.2,321.7 189.2,322.7C182.2,323.7 176.2,322.5 175.9,320C175.6,317.5 180.8,314.7 187.8,313.7C194.8,312.7 200.7,313.9 201.1,316.4Z" style="fill:url(#_Linear12);fill-rule:nonzero;"/>
                                </g>
                            </g>
                            <g>
                                <path d="M264.9,304.6C283.7,298.8 313.1,299.5 313.1,299.5C314.1,287.6 311.6,235.6 280.9,243.8C250.1,252 250.1,298.4 250.1,298.4C250.1,298.4 249.6,303.1 254.7,303.1C254.7,303.2 256.2,307.2 264.9,304.6Z" style="fill:white;fill-rule:nonzero;"/>
                                <g>
                                    <g>
                                        <g>
                                            <clipPath id="_clip13">
                                                <path d="M264.9,304.6C282.9,296.7 313.1,299.5 313.1,299.5C314.1,287.6 311.6,235.6 280.9,243.8C250.1,252 250.1,298.4 250.1,298.4C250.1,298.4 249.6,303.1 254.7,303.1"/>
                                            </clipPath>
                                            <g clip-path="url(#_clip13)">
                                                <g>
                                                    <path d="M318.4,284.9C317.1,288.4 315.3,291.5 313.2,294.1C305.5,304 293.4,307.6 283,302.1C270.3,295.3 264.7,277.3 270,261.2C270.2,260.6 270.4,260 270.6,259.5C276.9,243 292.8,235.3 305.9,242.3C319.2,249.3 324.8,268.4 318.4,284.9Z" style="fill:url(#_Radial14);fill-rule:nonzero;"/>
                                                    <path d="M318.4,284.9C312.1,301.4 296.2,309.1 283.1,302.1C269.9,295.1 264.4,276 270.7,259.4C277,242.9 292.9,235.2 306,242.2C319.2,249.3 324.8,268.4 318.4,284.9Z" style="fill:none;fill-rule:nonzero;stroke:black;stroke-width:4.73px;"/>
                                                </g>
                                                <path d="M312.8,282.5C311.8,286.8 308.2,289.5 304.7,288.5C301.2,287.5 299.2,283.2 300.2,278.9C301.2,274.6 304.8,271.9 308.3,272.9C311.8,273.9 313.8,278.2 312.8,282.5Z" style="fill:white;fill-rule:nonzero;"/>
                                                <g>
                                                    <path d="M277.8,282.8C276.7,287.6 272.7,290.6 268.8,289.5C264.9,288.4 262.7,283.5 263.8,278.7C264.9,273.9 268.9,270.9 272.8,272C276.6,273.2 278.9,278 277.8,282.8Z" style="fill:white;fill-rule:nonzero;"/>
                                                    <path d="M285,276.6C284.3,279.8 281.6,281.8 279,281C276.4,280.2 274.9,277 275.6,273.8C276.3,270.6 279,268.6 281.6,269.4C284.2,270.2 285.7,273.4 285,276.6Z" style="fill:white;fill-rule:nonzero;"/>
                                                </g>
                                            </g>
                                        </g>
                                    </g>
                                </g>
                                <g>
                                    <path d="M264.9,304.6C271.9,300 280.2,297.5 288.4,295.7C296.8,295 305,295.2 313.5,295.8L309.4,299.3C310,284.8 307.8,262.7 298,251.6C292.5,245.5 284.7,245.9 277.7,249C265,254.6 258.7,268.7 256,281.7C254,287.1 252.5,292.7 251.4,298.5C250.8,301 252.2,302.8 254.8,303.2C252.7,303.6 250.3,302.7 249.5,300.6C249.2,299.9 249,299.2 248.9,298.3L248.9,298.4C248.1,292.3 248.1,286.2 248.6,280C251.4,267.8 256.3,255.5 266.3,247.2C270.8,243.6 276.1,240.9 281.8,239.8C294,237 303.9,243.8 309.1,254.5C313.3,262.9 315.3,272.2 316.3,281.4C317,287.6 317.3,293.5 316.9,299.8C316.8,301.9 314.9,303.5 312.8,303.3C309,303 304.9,302.8 300.9,302.8C296.9,302.7 293,303.1 289,303.2C280.9,302.8 272.8,302.8 264.9,304.6Z" style="fill-rule:nonzero;"/>
                                </g>
                            </g>
                            <g>
                                <path d="M163.6,303.5C145,297.3 115.5,297.5 115.5,297.5C114.8,285.6 118.3,233.6 148.9,242.5C179.5,251.3 178.6,297.8 178.6,297.8C178.6,297.8 179,302.5 173.9,302.4C173.9,302.4 172.3,306.4 163.6,303.5Z" style="fill:white;fill-rule:nonzero;"/>
                                <g>
                                    <g>
                                        <g>
                                            <clipPath id="_clip15">
                                                <path d="M163.6,303.5C145.8,295.2 115.5,297.5 115.5,297.5C114.8,285.6 118.3,233.6 148.9,242.5C179.5,251.3 178.6,297.8 178.6,297.8C178.6,297.8 179,302.5 173.9,302.4"/>
                                            </clipPath>
                                            <g clip-path="url(#_clip15)">
                                                <g>
                                                    <path d="M184.3,283.6C183,287.1 181.2,290.2 179.1,292.8C171.4,302.7 159.3,306.3 148.9,300.8C136.2,294 130.6,276 135.9,259.9C136.1,259.3 136.3,258.7 136.5,258.2C142.8,241.7 158.7,234 171.8,241C185.1,248 190.6,267.1 184.3,283.6Z" style="fill:url(#_Radial16);fill-rule:nonzero;"/>
                                                    <path d="M184.3,283.6C178,300.1 162.1,307.8 149,300.8C135.8,293.8 130.3,274.7 136.6,258.1C142.9,241.6 158.8,233.9 171.9,240.9C185.1,248 190.6,267.1 184.3,283.6Z" style="fill:none;fill-rule:nonzero;stroke:black;stroke-width:4.73px;"/>
                                                </g>
                                                <path d="M178.6,281.2C177.6,285.5 174,288.2 170.5,287.2C167,286.2 165,281.9 166,277.6C167,273.3 170.6,270.6 174.1,271.6C177.6,272.5 179.6,276.9 178.6,281.2Z" style="fill:white;fill-rule:nonzero;"/>
                                                <g>
                                                    <path d="M143.6,281.4C142.5,286.2 138.5,289.2 134.6,288.1C130.7,287 128.5,282.1 129.6,277.3C130.7,272.5 134.7,269.5 138.6,270.6C142.5,271.8 144.7,276.6 143.6,281.4Z" style="fill:white;fill-rule:nonzero;"/>
                                                    <path d="M150.9,275.3C150.2,278.5 147.5,280.5 144.9,279.7C142.3,278.9 140.8,275.7 141.5,272.5C142.2,269.3 144.9,267.3 147.5,268.1C150.1,268.9 151.6,272.1 150.9,275.3Z" style="fill:white;fill-rule:nonzero;"/>
                                                </g>
                                            </g>
                                        </g>
                                    </g>
                                </g>
                                <g>
                                    <path d="M163.6,303.5C155.7,301.6 147.6,301.4 139.6,301.7C135.6,301.5 131.7,301 127.7,301C123.7,300.9 119.7,301 115.8,301.2C113.7,301.4 111.8,299.8 111.7,297.7C111.4,291.4 111.9,285.5 112.7,279.3C114,270.2 116.1,260.9 120.5,252.6C126,242 135.9,235.4 148.1,238.4C153.7,239.6 159.1,242.4 163.5,246.2C173.3,254.7 178,267.2 180.6,279.4C181,285.6 180.8,291.7 179.9,297.8L179.9,297.7C179.8,298.6 179.6,299.3 179.3,300C178.4,302.1 176,303 173.9,302.5C176.4,302.1 177.9,300.4 177.3,297.8C176.3,292.1 174.9,286.3 173,280.9C170.5,267.9 164.6,253.6 152,247.7C145.1,244.5 137.3,243.9 131.7,249.9C121.6,260.8 119,282.8 119.3,297.3L115.2,293.8C123.6,293.4 131.9,293.3 140.3,294.2C148.5,296.1 156.7,298.8 163.6,303.5Z" style="fill-rule:nonzero;"/>
                                </g>
                            </g>
                            <g>
                                <path d="M268.9,233.8C265.3,233.8 262.9,232.6 261.7,230.1C258.4,223.2 265.6,216.6 270.3,213.8C273.8,211.7 277.9,210.3 282,209.8C283.2,209.7 284.4,209.6 285.5,209.6C293.5,209.6 299.6,213.1 302.9,219.4C304,221.6 304.6,225 303.1,227.4C302.5,228.4 301.3,229.6 299,229.6C298.7,229.6 298.4,229.6 298.1,229.5C297.6,229.4 297.1,229.4 296.5,229.4C295.4,229.4 294.4,229.5 293.4,229.6C289.9,230 286.5,230.7 283.1,231.5C280.9,232 278.6,232.5 276.3,232.9C275.9,233 275.5,233 275,233.1C273.4,233.4 271.1,233.8 268.9,233.8Z" style="fill:url(#_Radial17);fill-rule:nonzero;"/>
                                <path d="M285.6,210.8C292.2,210.8 298.5,213.4 301.8,219.9C303.4,223 303.4,228.1 299.1,228.1L298.4,228.1C297.8,228 297.2,228 296.7,228C295.6,228 294.6,228.1 293.5,228.2C287.7,228.9 282,230.5 276.3,231.5C274.4,231.8 271.6,232.5 269,232.5C266.4,232.5 264.1,231.8 263,229.6C260.2,223.7 266.5,217.7 271.1,215C274.4,213 278.3,211.7 282.3,211.2C283.4,210.9 284.5,210.8 285.6,210.8M285.6,208.2C284.4,208.2 283.2,208.3 281.9,208.4C277.6,208.9 273.3,210.4 269.7,212.6C262.9,216.7 257.4,223.8 260.6,230.6C261.6,232.6 263.8,235 269,235C271.3,235 273.6,234.6 275.5,234.2C275.9,234.1 276.4,234 276.7,234C279,233.6 281.3,233.1 283.6,232.6C286.9,231.9 290.4,231.1 293.8,230.7C294.7,230.6 295.7,230.5 296.7,230.5C297.2,230.5 297.7,230.5 298.1,230.6C298.5,230.6 298.8,230.7 299.1,230.7C301.4,230.7 303.2,229.7 304.3,227.9C306,225.1 305.4,221.3 304.1,218.7C300.7,212.1 294,208.2 285.6,208.2Z" style="fill-rule:nonzero;"/>
                            </g>
                            <g>
                                <path d="M163.3,232.7C161,232.7 158.7,232.2 156.8,231.8C156.4,231.7 155.9,231.6 155.5,231.5C153.2,231.1 150.9,230.5 148.7,230C145.3,229.2 141.9,228.4 138.4,227.9C137.4,227.8 136.2,227.6 135,227.6C134.6,227.6 134.1,227.6 133.7,227.7L133,227.7C131.2,227.7 129.7,226.9 128.8,225.5C127.4,223.1 128,219.7 129.2,217.5C132.5,211.4 138.5,208.1 146.2,208.1C147.5,208.1 148.9,208.2 150.2,208.4C154.3,209 158.4,210.5 161.9,212.7C166.6,215.6 173.6,222.4 170.2,229.2C169.1,231.5 166.7,232.7 163.3,232.7Z" style="fill:url(#_Radial18);fill-rule:nonzero;"/>
                                <path d="M146.3,209.4C147.6,209.4 148.9,209.5 150.1,209.7C154.1,210.3 158,211.7 161.2,213.8C165.7,216.6 171.9,222.7 169,228.6C167.9,230.8 165.7,231.4 163.2,231.4C160.5,231.4 157.6,230.6 155.7,230.3C150,229.2 144.3,227.5 138.5,226.7C137.3,226.5 136.1,226.4 135,226.4C134.5,226.4 134.1,226.4 133.6,226.5L133,226.5C128.6,226.5 128.7,221.3 130.4,218.2C133.7,212 139.9,209.4 146.3,209.4M146.3,206.8C138.1,206.8 131.6,210.4 128.1,216.9C126.8,219.4 126.1,223.4 127.8,226.2C128.9,228 130.8,229 133.1,229L134,229C134.4,229 134.7,228.9 135.1,228.9C136.2,228.9 137.3,229 138.3,229.2C141.7,229.7 145.1,230.5 148.5,231.3C150.7,231.8 153,232.4 155.4,232.8C155.8,232.9 156.2,233 156.6,233.1C158.6,233.5 161,234 163.4,234C168.3,234 170.5,231.7 171.5,229.7C174.8,223 169.5,215.8 162.7,211.5C159.1,209.3 154.8,207.7 150.5,207.1C149.1,206.9 147.7,206.8 146.3,206.8Z" style="fill-rule:nonzero;"/>
                            </g>
                            <path d="M302.4,474.1C302.4,474.1 263,495.9 221.3,494.6C179.6,493.3 164.4,474.8 164.4,474.8C164.4,474.8 83.7,450.6 71.8,369.5L65.7,385.2C65.7,385.2 56.2,360 71.7,343.1L55,351.5C55,351.5 62.1,325.6 86.4,318.2C86.4,318.2 104.2,199.5 151.1,198.3C186.1,197.4 206.9,243.6 206.9,243.6C206.9,243.6 235.6,182.6 294.3,196.8C352.9,211 373,333.1 373,333.1C373,333.1 397.5,352.1 393.9,375.9L377.4,360C377.4,360 384.4,382.6 372.8,397.9L369.5,383.8C369.3,383.6 361.9,435.9 302.4,474.1Z" style="fill:none;fill-rule:nonzero;stroke:black;stroke-width:3.78px;"/>
                            <g>
                                <path d="M169.6,454.8C188.6,473 219,473.8 242.6,465.2C250.7,461.9 258.2,457.2 263.8,450.3C262.4,454.7 259.6,458.7 256.4,462C234.9,484.5 185,484.3 169.6,454.8Z" style="fill-rule:nonzero;"/>
                            </g>
                            <g>
                                <g>
                                    <path d="M298.7,376.1C298.7,376.1 290,397.5 271,415.6C269.2,417.3 267.3,419 265.3,420.7C252.6,431.1 236.2,439.5 215.5,440.5C202.9,441.1 192,438.8 182.7,434.6C181.2,434 179.8,433.3 178.4,432.5C147.7,416.5 135.5,382.1 135.5,382.1C135.5,382.1 143.1,387.5 155.7,389.1C168.3,390.7 193.5,382.2 193.5,382.2C234.9,407.4 298.7,376.1 298.7,376.1Z" style="fill:url(#_Radial19);fill-rule:nonzero;"/>
                                    <path d="M270.9,415.6C269.1,417.3 267.2,419 265.2,420.7C252.5,431.1 236.1,439.5 215.4,440.5C202.8,441.1 191.9,438.8 182.6,434.6C183.9,420.3 190.7,396.5 220.7,392.8C250.6,389.1 264.9,405.1 270.9,415.6Z" style="fill:rgb(43,9,41);fill-rule:nonzero;"/>
                                    <path d="M298.7,376.1C298.7,376.1 288.3,401.8 265.2,420.7C252.5,431.1 236.1,439.5 215.4,440.5C200.8,441.2 188.5,437.9 178.3,432.6C147.6,416.6 135.4,382.2 135.4,382.2C135.4,382.2 143,387.6 155.6,389.2C168.2,390.8 193.4,382.3 193.4,382.3C234.9,407.4 298.7,376.1 298.7,376.1Z" style="fill:none;fill-rule:nonzero;stroke:black;stroke-width:7.57px;"/>
                                    <g>
                                        <path d="M265.2,420.6C252.5,431 236.1,439.4 215.4,440.4C200.8,441.1 188.5,437.8 178.3,432.5C185.4,424.3 199.6,412.9 224.6,410.7C244.6,408.9 257.4,414.6 265.2,420.6Z" style="fill:url(#_Linear20);fill-rule:nonzero;stroke:black;stroke-width:5.67px;"/>
                                        <g>
                                            <path d="M211.2,420C212.1,422 208,425.6 202.1,428.1C196.2,430.6 190.7,430.9 189.8,428.9C188.9,426.9 193,423.3 198.9,420.8C204.8,418.3 210.3,418 211.2,420Z" style="fill:url(#_Linear21);fill-rule:nonzero;"/>
                                        </g>
                                        <g>
                                            <path d="M225,416.3C225.2,417.3 222.9,418.6 219.8,419.2C216.7,419.8 214.1,419.4 213.9,418.4C213.7,417.4 216,416.1 219.1,415.5C222.2,414.9 224.8,415.3 225,416.3Z" style="fill:url(#_Linear22);fill-rule:nonzero;"/>
                                        </g>
                                    </g>
                                </g>
                                <g>
                                    <path d="M191,383.4C190.7,378.1 192.1,372.8 194.3,368.1C195,366.6 195.8,365.2 196.6,363.8C196.4,365.4 196.2,367 196.1,368.6C196,373 196.5,377.6 198.3,381.6C198.3,381.5 191,383.4 191,383.4Z" style="fill-rule:nonzero;"/>
                                </g>
                                <g>
                                    <path d="M161.4,389.4C161.4,389.4 159.2,396 156.2,402.3C153.1,408.7 149.3,414.8 146.2,413.1C143,411.4 140.1,403 137.9,395.2C135.8,387.7 134.5,380.9 134.5,380.9C146.2,390.9 161.4,389.4 161.4,389.4Z" style="fill:url(#_Radial23);fill-rule:nonzero;stroke:black;stroke-width:3.78px;"/>
                                    <path d="M161.4,389.4C161.4,389.4 159.2,396 156.2,402.3C155.2,398.9 152.8,394.1 147.3,393.3C141.3,392.5 138.9,394.1 138,395.2C135.9,387.7 134.6,380.9 134.6,380.9C146.2,390.9 161.4,389.4 161.4,389.4Z" style="fill-opacity:0.56;fill-rule:nonzero;"/>
                                </g>
                                <g>
                                    <path d="M282.6,382.3C282.6,382.3 281,390.1 278.6,398C276.3,405.4 273.4,412.8 270.4,414.4C267,416.1 262.9,408.7 259.9,401.7C257.5,396 255.7,390.4 255.7,390.4C255.7,390.4 266.6,388.9 282.6,382.3Z" style="fill:url(#_Radial24);fill-rule:nonzero;stroke:black;stroke-width:3.78px;"/>
                                    <path d="M282.6,382.3C282.6,382.3 281,390.1 278.6,398C278.6,394.2 277.5,391.1 273.8,390.9C265,390.6 260.2,400.8 259.9,401.6C257.5,395.9 255.7,390.3 255.7,390.3C255.7,390.3 266.6,388.9 282.6,382.3Z" style="fill-opacity:0.56;fill-rule:nonzero;"/>
                                </g>
                                <path d="M117.3,365.3C117.3,365.3 134.2,383.8 149.4,388.2C164.7,392.6 193.3,382.3 193.3,382.3C193.3,382.3 208.1,394.4 242.6,391.7C277.1,389.1 308.4,370.2 308.4,370.2" style="fill:none;fill-rule:nonzero;stroke:black;stroke-width:9.46px;"/>
                                <path d="M300.1,365.3C302.2,364.7 304.5,365.1 306.5,366.2C308.5,367.2 310.2,369.1 311.2,371.2C312.1,373.4 312.3,375.7 312,377.8C311.8,378.9 311.5,379.9 311.2,380.9C310.7,381.9 310.3,382.8 309.6,383.6L309.4,383.5L309.9,380.6C310,379.6 310.1,378.7 310.1,377.7C310,375.8 309.7,373.9 308.9,372.1C307.4,368.6 303.9,366.1 300.1,365.4L300.1,365.3Z" style="fill-rule:nonzero;"/>
                                <path d="M128.8,362.3C126.9,361.2 124.6,360.9 122.4,361.4C120.2,361.8 118,363.2 116.5,364.9C115,366.7 114.2,368.9 113.9,371C113.8,372.1 113.8,373.1 113.8,374.2C114,375.3 114.2,376.3 114.6,377.3L114.9,377.3L115.2,374.4C115.4,373.5 115.6,372.5 115.8,371.6C116.4,369.8 117.2,368 118.5,366.5C120.9,363.5 125,362.1 128.8,362.5L128.8,362.3Z" style="fill-rule:nonzero;"/>
                            </g>
                        </g>
                    </g>
                </g>
            </g>
        </g>
    </g>
    <g transform="matrix(5.07664,0,0,5.07664,-2512.81,-188.573)">
        <path d="M632.307,103.015L639.857,103.015L649.357,69.665L641.357,69.665L635.557,93.765L629.257,69.665L623.707,69.665L617.357,93.765L611.507,69.665L603.557,69.665L613.107,103.015L620.657,103.015L626.457,80.115L632.307,103.015Z" style="fill-rule:nonzero;"/>
        <path d="M652.707,103.015L659.807,103.015L659.807,91.065L668.307,91.065C675.507,91.065 679.507,86.215 679.507,80.415C679.507,74.565 675.557,69.665 668.307,69.665L652.707,69.665L652.707,103.015ZM672.257,80.365C672.257,83.165 670.157,84.965 667.357,84.965L659.807,84.965L659.807,75.765L667.357,75.765C670.157,75.765 672.257,77.615 672.257,80.365Z" style="fill-rule:nonzero;"/>
        <path d="M712.607,103.615C720.207,103.615 724.407,99.565 726.807,95.415L720.707,92.465C719.307,95.215 716.307,97.315 712.607,97.315C706.807,97.315 702.407,92.665 702.407,86.365C702.407,80.065 706.807,75.415 712.607,75.415C716.307,75.415 719.307,77.565 720.707,80.265L726.807,77.265C724.457,73.115 720.207,69.115 712.607,69.115C702.857,69.115 695.107,76.115 695.107,86.365C695.107,96.615 702.857,103.615 712.607,103.615Z" style="fill-rule:nonzero;"/>
        <path d="M731.057,103.015L752.257,103.015L752.257,96.765L738.157,96.765L738.157,69.665L731.057,69.665L731.057,103.015Z" style="fill-rule:nonzero;"/>
        <rect x="757.207" y="69.665" width="7.1" height="33.35"/>
        <path d="M782.107,86.365C782.107,96.865 790.107,103.665 799.857,103.665C805.907,103.665 810.657,101.165 814.057,97.365L814.057,84.615L798.157,84.615L798.157,90.715L807.057,90.715L807.057,94.765C805.607,96.065 802.907,97.315 799.857,97.315C793.807,97.315 789.407,92.665 789.407,86.365C789.407,80.065 793.807,75.415 799.857,75.415C803.357,75.415 806.207,77.265 807.757,79.615L813.657,76.415C811.107,72.465 806.757,69.115 799.857,69.115C790.107,69.115 782.107,75.815 782.107,86.365Z" style="fill-rule:nonzero;"/>
        <path d="M819.707,89.715C819.707,97.915 824.457,103.615 834.657,103.615C844.757,103.615 849.507,97.965 849.507,89.665L849.507,69.665L842.307,69.665L842.307,89.465C842.307,94.115 839.757,97.315 834.657,97.315C829.457,97.315 826.907,94.115 826.907,89.465L826.907,69.665L819.707,69.665L819.707,89.715Z" style="fill-rule:nonzero;"/>
        <rect x="856.107" y="69.665" width="7.1" height="33.35"/>
    </g>
    <defs>
        <radialGradient id="_Radial2" cx="0" cy="0" r="1" gradientUnits="userSpaceOnUse" gradientTransform="matrix(305.843,3.08932,-3.08932,305.843,257.411,-10.7267)"><stop offset="0" style="stop-color:rgb(13,77,140);stop-opacity:1"/><stop offset="0.18" style="stop-color:rgb(13,77,140);stop-opacity:1"/><stop offset="0.56" style="stop-color:rgb(10,22,51);stop-opacity:1"/><stop offset="1" style="stop-color:rgb(10,22,51);stop-opacity:1"/></radialGradient>
        <radialGradient id="_Radial3" cx="0" cy="0" r="1" gradientUnits="userSpaceOnUse" gradientTransform="matrix(119.023,1.20225,-1.20225,119.023,153.196,5.24789)"><stop offset="0" style="stop-color:rgb(13,77,140);stop-opacity:1"/><stop offset="1" style="stop-color:rgb(13,77,140);stop-opacity:1"/></radialGradient>
        <radialGradient id="_Radial4" cx="0" cy="0" r="1" gradientUnits="userSpaceOnUse" gradientTransform="matrix(85.3287,0.861906,-0.861906,85.3287,326.244,28.3802)"><stop offset="0" style="stop-color:rgb(13,77,140);stop-opacity:1"/><stop offset="1" style="stop-color:rgb(13,77,140);stop-opacity:1"/></radialGradient>
        <radialGradient id="_Radial5" cx="0" cy="0" r="1" gradientUnits="userSpaceOnUse" gradientTransform="matrix(216.123,2.18306,-2.18306,216.123,208.135,313.366)"><stop offset="0" style="stop-color:rgb(107,200,246);stop-opacity:1"/><stop offset="0.08" style="stop-color:rgb(107,200,246);stop-opacity:1"/><stop offset="0.4" style="stop-color:rgb(23,149,210);stop-opacity:1"/><stop offset="1" style="stop-color:rgb(23,149,210);stop-opacity:1"/></radialGradient>
        <radialGradient id="_Radial6" cx="0" cy="0" r="1" gradientUnits="userSpaceOnUse" gradientTransform="matrix(62.5314,0.631631,-0.631631,62.5314,204.829,292.081)"><stop offset="0" style="stop-color:rgb(144,221,252);stop-opacity:1"/><stop offset="0.18" style="stop-color:rgb(144,221,252);stop-opacity:1"/><stop offset="0.56" style="stop-color:rgb(107,200,246);stop-opacity:1"/><stop offset="1" style="stop-color:rgb(107,200,246);stop-opacity:1"/></radialGradient>
        <radialGradient id="_Radial7" cx="0" cy="0" r="1" gradientUnits="userSpaceOnUse" gradientTransform="matrix(159.973,1.61589,-1.61589,159.973,224.602,343.651)"><stop offset="0" style="stop-color:rgb(23,149,210);stop-opacity:1"/><stop offset="0.4" style="stop-color:rgb(23,149,210);stop-opacity:1"/><stop offset="0.84" style="stop-color:rgb(13,77,140);stop-opacity:1"/><stop offset="1" style="stop-color:rgb(13,77,140);stop-opacity:1"/></radialGradient>
        <radialGradient id="_Radial8" cx="0" cy="0" r="1" gradientUnits="userSpaceOnUse" gradientTransform="matrix(153.284,1.54832,-1.54832,153.284,447.293,114.999)"><stop offset="0" style="stop-color:rgb(107,200,246);stop-opacity:1"/><stop offset="0.08" style="stop-color:rgb(107,200,246);stop-opacity:1"/><stop offset="0.4" style="stop-color:rgb(23,149,210);stop-opacity:1"/><stop offset="1" style="stop-color:rgb(23,149,210);stop-opacity:1"/></radialGradient>
        <radialGradient id="_Radial9" cx="0" cy="0" r="1" gradientUnits="userSpaceOnUse" gradientTransform="matrix(100.337,1.01351,-1.01351,100.337,475.403,122.294)"><stop offset="0" style="stop-color:rgb(22,145,206);stop-opacity:1"/><stop offset="0.23" style="stop-color:rgb(23,149,210);stop-opacity:1"/><stop offset="0.28" style="stop-color:rgb(22,141,202);stop-opacity:1"/><stop offset="0.54" style="stop-color:rgb(17,106,168);stop-opacity:1"/><stop offset="0.75" style="stop-color:rgb(14,85,148);stop-opacity:1"/><stop offset="0.89" style="stop-color:rgb(13,77,140);stop-opacity:1"/><stop offset="1" style="stop-color:rgb(13,77,140);stop-opacity:1"/></radialGradient>
        <radialGradient id="_Radial10" cx="0" cy="0" r="1" gradientUnits="userSpaceOnUse" gradientTransform="matrix(28.5915,0.288803,-0.288803,28.5915,188.741,314.817)"><stop offset="0" style="stop-color:rgb(141,143,142);stop-opacity:1"/><stop offset="0.19" style="stop-color:rgb(109,110,112);stop-opacity:1"/><stop offset="0.38" style="stop-color:rgb(65,67,66);stop-opacity:1"/><stop offset="0.59" style="stop-color:rgb(43,45,44);stop-opacity:1"/><stop offset="0.96" style="stop-color:black;stop-opacity:1"/><stop offset="1" style="stop-color:black;stop-opacity:1"/></radialGradient>
        <radialGradient id="_Radial11" cx="0" cy="0" r="1" gradientUnits="userSpaceOnUse" gradientTransform="matrix(52.0784,0.526044,-0.526044,52.0784,194.952,384.797)"><stop offset="0" style="stop-color:rgb(141,143,142);stop-opacity:1"/><stop offset="0.19" style="stop-color:rgb(109,110,112);stop-opacity:1"/><stop offset="0.38" style="stop-color:rgb(65,67,66);stop-opacity:1"/><stop offset="0.59" style="stop-color:rgb(43,45,44);stop-opacity:1"/><stop offset="0.96" style="stop-color:black;stop-opacity:1"/><stop offset="1" style="stop-color:black;stop-opacity:1"/></radialGradient>
        <linearGradient id="_Linear12" x1="0" y1="0" x2="1" y2="0" gradientUnits="userSpaceOnUse" gradientTransform="matrix(14.9642,14.4097,-14.4097,14.9642,187.534,317.253)"><stop offset="0" style="stop-color:white;stop-opacity:1"/><stop offset="1" style="stop-color:white;stop-opacity:0"/></linearGradient>
        <radialGradient id="_Radial14" cx="0" cy="0" r="1" gradientUnits="userSpaceOnUse" gradientTransform="matrix(42.8701,0.433031,-0.433031,42.8701,279.831,300.034)"><stop offset="0" style="stop-color:rgb(88,89,91);stop-opacity:1"/><stop offset="0.35" style="stop-color:rgb(88,89,91);stop-opacity:1"/><stop offset="0.57" style="stop-color:rgb(17,27,18);stop-opacity:1"/><stop offset="0.75" style="stop-color:rgb(0,13,0);stop-opacity:1"/><stop offset="0.86" style="stop-color:black;stop-opacity:1"/><stop offset="1" style="stop-color:black;stop-opacity:1"/></radialGradient>
        <radialGradient id="_Radial16" cx="0" cy="0" r="1" gradientUnits="userSpaceOnUse" gradientTransform="matrix(42.8701,0.433031,-0.433031,42.8701,145.693,298.679)"><stop offset="0" style="stop-color:rgb(88,89,91);stop-opacity:1"/><stop offset="0.35" style="stop-color:rgb(88,89,91);stop-opacity:1"/><stop offset="0.57" style="stop-color:rgb(17,27,18);stop-opacity:1"/><stop offset="0.75" style="stop-color:rgb(0,13,0);stop-opacity:1"/><stop offset="0.86" style="stop-color:black;stop-opacity:1"/><stop offset="1" style="stop-color:black;stop-opacity:1"/></radialGradient>
        <radialGradient id="_Radial17" cx="0" cy="0" r="1" gradientUnits="userSpaceOnUse" gradientTransform="matrix(48.8586,0.493521,-0.493521,48.8586,284.213,213.109)"><stop offset="0" style="stop-color:rgb(107,200,246);stop-opacity:1"/><stop offset="0.08" style="stop-color:rgb(107,200,246);stop-opacity:1"/><stop offset="0.4" style="stop-color:rgb(23,149,210);stop-opacity:1"/><stop offset="1" style="stop-color:rgb(23,149,210);stop-opacity:1"/></radialGradient>
        <radialGradient id="_Radial18" cx="0" cy="0" r="1" gradientUnits="userSpaceOnUse" gradientTransform="matrix(-48.8597,-0.493532,-0.493532,48.8597,148.128,211.734)"><stop offset="0" style="stop-color:rgb(107,200,246);stop-opacity:1"/><stop offset="0.08" style="stop-color:rgb(107,200,246);stop-opacity:1"/><stop offset="0.4" style="stop-color:rgb(23,149,210);stop-opacity:1"/><stop offset="1" style="stop-color:rgb(23,149,210);stop-opacity:1"/></radialGradient>
        <radialGradient id="_Radial19" cx="0" cy="0" r="1" gradientUnits="userSpaceOnUse" gradientTransform="matrix(109.303,1.10407,-1.10407,109.303,199.027,455.758)"><stop offset="0" style="stop-color:rgb(198,80,156);stop-opacity:1"/><stop offset="0.11" style="stop-color:rgb(198,80,156);stop-opacity:1"/><stop offset="0.29" style="stop-color:rgb(153,60,127);stop-opacity:1"/><stop offset="0.53" style="stop-color:rgb(83,21,75);stop-opacity:1"/><stop offset="1" style="stop-color:rgb(83,21,75);stop-opacity:1"/></radialGradient>
        <linearGradient id="_Linear20" x1="0" y1="0" x2="1" y2="0" gradientUnits="userSpaceOnUse" gradientTransform="matrix(86.7616,0.87638,-0.87638,86.7616,178.38,424.975)"><stop offset="0" style="stop-color:rgb(255,177,233);stop-opacity:1"/><stop offset="0.09" style="stop-color:rgb(255,177,233);stop-opacity:1"/><stop offset="0.44" style="stop-color:rgb(254,105,192);stop-opacity:1"/><stop offset="1" style="stop-color:rgb(254,105,192);stop-opacity:1"/></linearGradient>
        <linearGradient id="_Linear21" x1="0" y1="0" x2="1" y2="0" gradientUnits="userSpaceOnUse" gradientTransform="matrix(16.191,8.63297,-8.63297,16.191,199.443,423.858)"><stop offset="0" style="stop-color:white;stop-opacity:1"/><stop offset="1" style="stop-color:white;stop-opacity:0"/></linearGradient>
        <linearGradient id="_Linear22" x1="0" y1="0" x2="1" y2="0" gradientUnits="userSpaceOnUse" gradientTransform="matrix(6.81387,5.71988,-5.71988,6.81387,219.069,416.994)"><stop offset="0" style="stop-color:white;stop-opacity:1"/><stop offset="1" style="stop-color:white;stop-opacity:0"/></linearGradient>
        <radialGradient id="_Radial23" cx="0" cy="0" r="1" gradientUnits="userSpaceOnUse" gradientTransform="matrix(14.8764,0.150267,-0.150267,14.8764,147.863,397.128)"><stop offset="0" style="stop-color:white;stop-opacity:1"/><stop offset="0.08" style="stop-color:white;stop-opacity:1"/><stop offset="0.91" style="stop-color:rgb(176,177,178);stop-opacity:1"/><stop offset="1" style="stop-color:rgb(176,177,178);stop-opacity:1"/></radialGradient>
        <radialGradient id="_Radial24" cx="0" cy="0" r="1" gradientUnits="userSpaceOnUse" gradientTransform="matrix(14.8772,0.150275,-0.150275,14.8772,269.048,398.355)"><stop offset="0" style="stop-color:white;stop-opacity:1"/><stop offset="0.08" style="stop-color:white;stop-opacity:1"/><stop offset="0.91" style="stop-color:rgb(176,177,178);stop-opacity:1"/><stop offset="1" style="stop-color:rgb(176,177,178);stop-opacity:1"/></radialGradient>
    </defs>
</svg>
